<svg id="Layer_1" data-name="Layer 1" xmlns="http://www.w3.org/2000/svg" width="140" height="24.62" viewBox="0 0 140 24.62"><g id="Layer_2" data-name="Layer 2"><g id="Layer_1-2" data-name="Layer 1-2"><path d="M4.18.46h6.45l3.09,7.33L19.37.46h6.35L21.57,24.14h-6.9L16.74,12.4l-4.31,5.29h-.89L9,12.1l-2.1,12H0Z"/><path d="M115.72.46l-5.66,7.33L107,.46h-1.78L98.61,11.25,96.34,24.14h6.91l2.1-12,2.53,5.59h.89l4.31-5.29L111,24.14h6.9L122.06.46Z"/><path d="M24.9,12.76l.33-1.94C26.58,2.8,30.56,0,36.25,0c6.08,0,9.9,3.65,8.48,11.74l-.32,1.88c-1.32,7.46-4.15,11-10.82,11C26,24.6,23.62,20.13,24.9,12.76Zm11.84.62.33-1.9c.69-3.82.27-5-1.38-5-1.45,0-2.24,1.25-2.86,4.77l-.36,1.9c-.63,3.69-.26,4.87,1.31,4.87S36.05,17.2,36.74,13.38Z"/><path d="M48.07.46h6.71L58.63,12l2-11.51h6.64L63.1,24.14H56.56l-4-11.35-2,11.35H43.9Z"/><path d="M86.45,15.33,82.76.46H90l1.61,7.4L95.79.46h7.63L93.81,16.21l-1.38,7.93H84.9Z"/><path d="M123.87.46H140l-1.1,6.18h-9L129.49,9h8.12l-1.12,6.22h-8.12l-.43,2.4h9l-1.16,6.48H119.69Z"/><path d="M69.06.46H86.32L85.24,6.64H75.11L74.68,9h8.11l-1.11,6.22H73.56l-.43,2.4h9L81,24.14H64.88Z"/></g></g></svg>